<svg width="32" height="32" viewBox="0 0 32 32" fill="none" xmlns="http://www.w3.org/2000/svg">
<path d="M25.8766 19.6126L25.0864 19.0821C23.5589 18.0716 22.5844 16.4547 22.4 14.6863L22.1366 11.8063C21.8996 9.22947 19.9506 7.18316 17.4222 6.60211V5.36421C17.4222 4.60632 16.7901 4 16 4C15.2099 4 14.5778 4.60632 14.5778 5.36421V6.60211C12.0494 7.18316 10.1004 9.22947 9.86339 11.8063L9.60001 14.6863C9.44199 16.4547 8.44116 18.0716 6.91359 19.0821L6.12347 19.6126C5.62306 19.9411 5.33334 20.4968 5.33334 21.0779V22.1389C5.33334 22.5684 5.67573 22.8968 6.12347 22.8968H25.8766C26.3243 22.8968 26.6667 22.5684 26.6667 22.1389V21.0779C26.6667 20.4968 26.377 19.9411 25.8766 19.6126Z" fill="white"/>
<path d="M16 28C17.8963 28 19.4239 26.5348 19.4239 24.7158H12.5761C12.5761 26.5348 14.1037 28 16 28Z" fill="white"/>
</svg>
