<svg width="25" height="24" viewBox="0 0 25 24" fill="none" xmlns="http://www.w3.org/2000/svg">
<path d="M9.71429 5C9.00941 5 8.42857 5.57497 8.42857 6.27273V7.54545H4.35714C3.88229 7.54545 3.5 7.92388 3.5 8.39394V9.43466C3.55843 9.48382 3.76652 9.65916 3.76786 9.66004C5.71724 11.1825 8.90059 12.2121 12.5 12.2121C16.0994 12.2121 19.2828 11.1825 21.2321 9.66004C21.2335 9.65916 21.4416 9.48382 21.5 9.43466V8.39394C21.5 7.92388 21.1177 7.54545 20.6429 7.54545H16.5714V6.27273C16.5714 5.57497 15.9906 5 15.2857 5H9.71429ZM9.71429 5.84848H15.2857C15.5306 5.84848 15.7143 6.03036 15.7143 6.27273V7.54545H9.28571V6.27273C9.28571 6.03036 9.46944 5.84848 9.71429 5.84848ZM3.5 10.5284V18.1515C3.5 18.6216 3.88229 19 4.35714 19H20.6429C21.1177 19 21.5 18.6216 21.5 18.1515V10.5284C19.6448 11.8746 16.9982 12.7734 14 13.0009V13.697C14 13.932 13.8089 14.1212 13.5714 14.1212H11.4286C11.1911 14.1212 11 13.932 11 13.697V13.0009C8.00182 12.7734 5.35523 11.8746 3.5 10.5284Z" fill="#BFD2DF"/>
</svg>
