<svg width="24" height="24" viewBox="0 0 24 24" fill="none" xmlns="http://www.w3.org/2000/svg">
<path d="M12 12.696C13.2857 12.696 14.328 11.6538 14.328 10.368C14.328 9.08232 13.2857 8.04004 12 8.04004C10.7143 8.04004 9.672 9.08232 9.672 10.368C9.672 11.6538 10.7143 12.696 12 12.696Z" fill="#BFD2DF"/>
<path d="M1.59508 8.6903C2.09508 8.6903 2.49985 8.28554 2.49985 7.78553V3.8093H6.47608C6.97608 3.8093 7.38085 3.40454 7.38085 2.90453C7.38085 2.40453 6.99989 1.97595 6.49989 1.97595H1.59508C1.09507 1.97595 0.690308 2.38072 0.690308 2.88072V7.76172C0.690308 8.28554 1.09507 8.6903 1.59508 8.6903Z" fill="#BFD2DF"/>
<path d="M6.49989 20.1904H2.49985V16.2142C2.49985 15.7142 2.09508 15.3094 1.59508 15.3094C1.09507 15.3094 0.690308 15.7142 0.690308 16.2142V21.0952C0.690308 21.5952 1.09507 22 1.59508 22H6.47608C6.97608 22 7.38085 21.5952 7.38085 21.0952C7.38085 20.5952 6.99989 20.1904 6.49989 20.1904Z" fill="#BFD2DF"/>
<path d="M22.4048 15.3094C21.9048 15.3094 21.5 15.7142 21.5 16.2142V20.1904H17.5C17 20.1904 16.5952 20.5952 16.5952 21.0952C16.5952 21.5952 17 22 17.5 22H22.381C22.881 22 23.2858 21.5952 23.2858 21.0952V16.2142C23.3096 15.7142 22.9048 15.3094 22.4048 15.3094Z" fill="#BFD2DF"/>
<path d="M22.4048 1.97595H17.5C17 1.97595 16.5952 2.38072 16.5952 2.88072C16.5952 3.38073 17 3.78549 17.5 3.78549H21.4762V7.76173C21.4762 8.26173 21.881 8.6665 22.381 8.6665C22.881 8.6665 23.2858 8.26173 23.2858 7.76173V2.88072C23.3096 2.38072 22.9048 1.97595 22.4048 1.97595Z" fill="#BFD2DF"/>
<path d="M19.152 12C19.152 8.04002 15.936 4.84802 12 4.84802C8.06402 4.84802 4.84802 8.04002 4.84802 12C4.84802 15.96 8.04002 19.152 12 19.152C15.96 19.152 19.152 15.96 19.152 12ZM6.67202 12C6.67202 9.07202 9.07202 6.67202 12 6.67202C14.928 6.67202 17.328 9.07202 17.328 12C17.328 13.464 16.728 14.784 15.792 15.744C15.624 14.4 14.472 13.344 13.08 13.344H10.92C9.52802 13.344 8.40002 14.376 8.20802 15.744C7.27202 14.784 6.67202 13.464 6.67202 12Z" fill="#BFD2DF"/>
</svg>
