<svg width="56" height="34" viewBox="0 0 56 34" fill="none" xmlns="http://www.w3.org/2000/svg">
<path d="M1.31672 19.4309C1.05255 19.4309 0.785803 19.35 0.554089 19.1823C-0.0388553 18.7518 -0.178012 17.9135 0.24428 17.3091C9.11755 4.59658 20.6894 0.0397778 27.9025 0.000139236C34.9892 -0.02705 44.5467 1.89034 55.741 17.2881C56.1742 17.884 56.0514 18.7253 55.4668 19.1669C54.8822 19.6085 54.0566 19.4833 53.624 18.8874C43.1956 4.54449 34.8006 2.63987 27.9169 2.68639C21.3264 2.72243 10.6872 6.98177 2.39141 18.8661C2.13463 19.2344 1.72873 19.4309 1.31672 19.4309Z" fill="white"/>
<path d="M28.4955 25.7535C22.4935 25.7535 17.6156 20.7814 17.6156 14.6701C17.6156 8.55858 22.4935 3.24407 28.4955 3.24407C34.4909 3.24407 39.3755 8.55858 39.3755 14.6701C39.3755 20.7814 34.4909 25.7535 28.4955 25.7535ZM47.0606 31.6443L39.238 23.6707C41.1772 21.2609 42.346 18.1744 42.346 14.81C42.346 7.09359 36.2032 0.496555 28.6331 0.496555C21.0563 0.496555 14.9202 7.09359 14.9202 14.81C14.9202 22.5268 21.0563 28.788 28.6331 28.788C31.9333 28.788 34.9549 27.6034 37.319 25.6268L45.1414 33.5941C45.6729 34.1353 46.5294 34.1353 47.0606 33.5941C47.5919 33.0592 47.5919 32.1792 47.0606 31.6443Z" fill="white"/>
<path fill-rule="evenodd" clip-rule="evenodd" d="M37.7818 14.3973C37.7819 14.3773 37.7819 14.3573 37.7819 14.3373C37.7819 9.13285 33.6669 4.91382 28.5907 4.91382C25.9716 4.91382 23.6083 6.03705 21.9341 7.83932L22.6668 7.20689H22.985C23.0335 7.20663 23.0366 7.24955 23.0397 7.29155C23.0424 7.32869 23.0451 7.36512 23.079 7.37039C23.142 7.53072 23.2135 7.70447 23.2981 7.89915C23.3258 7.99829 23.356 8.10463 23.3885 8.21424C23.2212 8.37653 23.0565 8.55191 22.8959 8.73874C22.8624 8.83069 22.8296 8.92394 22.7977 9.02046C22.6842 9.0853 22.5737 9.15182 22.4634 9.21821L22.437 9.23412C22.3594 9.49654 22.288 9.77367 22.2214 10.0616C22.0886 10.0422 21.9572 10.024 21.83 10.0063L21.7927 10.0011C21.6952 9.42717 21.5942 8.47306 21.5942 8.47306C21.5942 8.47306 20.7833 9.51781 20.465 10.1045C20.4825 10.0896 20.4996 10.0747 20.5167 10.06L20.5167 10.06C20.5456 10.0349 20.5743 10.01 20.6047 9.98505C20.7282 10.6195 20.8766 11.3151 21.0784 12.0719C20.6729 12.3376 20.3089 12.6017 19.9949 12.8562C19.7845 13.0536 19.6013 13.2482 19.441 13.436C19.4136 13.7327 19.3995 14.0333 19.3995 14.3373C19.3995 15.2606 19.529 16.1528 19.7704 16.996C19.8918 17.0381 20.0212 17.0799 20.1603 17.1209C20.4624 17.472 20.8068 17.828 21.1855 18.1798C21.2682 18.4314 21.3561 18.6787 21.4484 18.9228C21.9401 19.233 22.4775 19.535 23.0375 19.8184C22.8685 20.3507 22.7382 20.8157 22.6407 21.2165C22.5318 21.2199 22.4246 21.223 22.3186 21.2257C23.961 22.7983 26.1662 23.7608 28.5907 23.7608C33.5039 23.7608 37.5166 19.8084 37.7693 14.8356C37.757 14.7869 37.7456 14.7385 37.7341 14.69C37.7184 14.6234 37.7027 14.5567 37.6844 14.4886C37.4634 14.7612 37.2056 15.0501 36.9157 15.3508C36.9119 15.4845 36.9072 15.6189 36.9025 15.7524L36.9025 15.7525L36.8976 15.8936C36.7879 16.0507 36.675 16.2067 36.5559 16.3667C36.4429 15.8956 36.3152 15.4061 36.1668 14.9071C36.0021 14.6411 35.8254 14.3702 35.6381 14.0947C35.2014 13.9841 34.7278 13.8718 34.2293 13.756C34.0935 13.6231 33.9533 13.4907 33.8115 13.3568L33.7772 13.3244L33.7468 13.3432C33.683 13.3825 33.6203 13.4212 33.5564 13.4596C33.6729 13.7455 33.7868 14.0315 33.8946 14.3185C34.0629 14.2255 34.2303 14.1316 34.3905 14.0404C34.6097 14.2314 34.8211 14.4202 35.0238 14.6044C34.4233 15.0314 33.7607 15.4807 33.0631 15.9342C32.7307 15.1931 32.3658 14.4202 31.9818 13.6526C31.9119 13.6633 31.8418 13.675 31.7723 13.6866L31.7447 13.6912C32.1389 14.6051 32.5186 15.5271 32.8481 16.4018C33.2121 16.2149 33.5657 16.0281 33.9085 15.8449C33.792 16.2578 33.6658 16.6694 33.5323 17.0719C33.1699 17.4174 32.7957 17.7577 32.4185 18.0901C32.4365 18.558 32.4462 19.0053 32.4443 19.4182C32.2348 19.5648 32.0259 19.7068 31.8155 19.8445C31.3859 20.4306 30.9614 20.9374 30.5585 21.3297C30.2203 21.3742 29.8847 21.4154 29.551 21.455C29.2997 21.0552 29.0014 20.5084 28.677 19.8596L28.7049 19.7515C28.7738 19.4858 28.8465 19.205 28.9187 18.9088C28.714 18.3244 28.4974 17.6857 28.2786 17.0238C27.5443 17.0692 26.818 17.1088 26.1077 17.1412C25.6975 16.7483 25.2917 16.3474 24.8968 15.9447C24.9483 15.2991 25.0133 14.6395 25.088 13.9834C25.4738 13.4939 25.8722 13.0044 26.2728 12.5238C27.0284 12.3818 27.8004 12.244 28.5672 12.1132C28.601 12.2528 28.6342 12.3933 28.6675 12.5343L28.7114 12.7201C28.9316 12.863 29.1516 13.008 29.3725 13.1536L29.3729 13.1539L29.3739 13.1545L29.3743 13.1548L29.6588 13.3421C29.7224 13.2526 29.7848 13.1634 29.8468 13.0748L29.8468 13.0747L29.8473 13.074L29.8478 13.0733C29.9039 12.993 29.9597 12.9132 30.0157 12.8343C30.4964 12.9606 30.9708 13.0885 31.4383 13.2174L31.4978 13.1807C31.5966 13.1195 31.6945 13.0589 31.793 12.9992C31.823 12.888 31.8513 12.7777 31.8795 12.6684L31.8796 12.6681L31.8798 12.6674L31.8798 12.6671L31.8799 12.6666L31.8803 12.6651C31.8972 12.5996 31.914 12.5344 31.931 12.4695L31.7769 12.4402C31.5108 12.3897 31.2409 12.3384 30.9691 12.2885C30.8597 12.1069 30.749 11.9257 30.6396 11.7467C30.5611 11.7087 30.4836 11.6701 30.4076 11.6309C30.3471 11.8527 30.285 12.0791 30.2213 12.3078C30.0729 12.1236 29.9252 11.942 29.7769 11.7624L29.7776 11.7484L29.7776 11.7483C29.7851 11.6039 29.7925 11.4613 29.7968 11.32C29.6028 11.1721 29.4094 11.0272 29.2186 10.8852L29.1816 10.8678L29.1815 10.8678L29.1808 10.8674L29.1807 10.8674C29.0781 10.8191 28.9768 10.7715 28.8762 10.7248C28.8814 10.7888 28.8858 10.8535 28.8903 10.9187L28.8903 10.919L28.8903 10.919L28.8903 10.9191C28.8955 10.9954 28.9008 11.0725 28.9074 11.1499L28.9902 11.2035C29.2021 11.3409 29.4168 11.4799 29.6311 11.622C29.5317 11.7329 29.432 11.8461 29.3305 11.9611L29.3305 11.9612L29.3303 11.9614L29.3302 11.9615L29.2591 12.0421C29.0824 11.8131 28.9074 11.5886 28.7355 11.3694L28.665 11.2915C28.5643 11.1803 28.4648 11.0704 28.3648 10.9624C28.0781 11.0965 27.7891 11.2359 27.5005 11.3763C27.2932 11.6799 27.0838 11.9921 26.8749 12.3105C26.5692 12.2666 26.2674 12.2247 25.9681 12.1835C25.9639 11.8053 25.962 11.4358 25.9655 11.0825C26.3423 11.0982 26.7237 11.1158 27.1105 11.1368C26.9946 10.9509 26.8807 10.7684 26.7687 10.5913C26.7031 10.4464 26.6384 10.3044 26.5747 10.1676C26.8627 10.0783 27.1517 9.98963 27.439 9.90521C27.6028 9.71838 27.7634 9.53875 27.923 9.36664C27.988 9.36258 28.0534 9.35826 28.1186 9.35395L28.1188 9.35394L28.119 9.35392L28.1192 9.35391L28.1195 9.35389C28.1802 9.34988 28.2408 9.34587 28.3008 9.3421C28.2767 9.24656 28.2519 9.15265 28.2274 9.06234C28.2789 9.00897 28.3289 8.95773 28.3785 8.907L28.3787 8.90676L28.379 8.90644L28.4691 8.814C28.5296 8.9475 28.5907 9.08688 28.6519 9.23183C29.0023 9.2387 29.3524 9.24917 29.7009 9.26063L29.7702 9.10451L29.7702 9.10441L29.7704 9.10407L29.7705 9.10388C29.8345 8.95924 29.8959 8.82067 29.9565 8.68868C30.0355 8.70966 30.1153 8.731 30.1951 8.75234L30.3548 8.79502C30.2998 8.6684 30.2445 8.54831 30.1901 8.43347L30.2116 8.42901C30.398 8.39034 30.5784 8.35293 30.7593 8.31764C30.6914 8.26594 30.6232 8.21686 30.556 8.16876C30.3896 8.19592 30.2178 8.22537 30.0453 8.25645C29.9729 8.15469 29.9021 8.05817 29.8313 7.96688C29.8263 7.96688 29.8217 7.96662 29.8172 7.96637C29.8129 7.96613 29.8088 7.9659 29.8046 7.9659C29.8078 7.9587 29.8113 7.95281 29.8158 7.94561C29.7872 7.90798 29.7569 7.87101 29.7267 7.83698L29.7379 7.83231L29.7379 7.8323L29.7379 7.83229C29.7991 7.80671 29.86 7.78125 29.9201 7.75813C29.9709 7.67044 30.0115 7.60532 30.0572 7.53432C30.0277 7.53184 29.9978 7.52913 29.9679 7.52641L29.9678 7.52641L29.9676 7.52639C29.9346 7.52339 29.9013 7.52038 29.8683 7.51763C29.7788 7.57293 29.6865 7.63608 29.5925 7.70185C29.5166 7.80197 29.4371 7.91518 29.354 8.03592C29.4577 8.10528 29.5622 8.17563 29.6665 8.24925C29.5837 8.42106 29.4977 8.61035 29.4055 8.81308L29.3939 8.83854L29.2655 8.87608C29.1516 8.90936 29.0372 8.9428 28.9212 8.97727C28.8314 8.75707 28.7426 8.55257 28.657 8.3641L28.5897 8.39102C28.4328 8.45373 28.2726 8.51776 28.1119 8.58529C28.0556 8.55977 27.9999 8.5354 27.9445 8.51114L27.9445 8.51113L27.8593 8.47371C27.878 8.28688 27.8989 8.11412 27.9195 7.96066C28.073 7.88868 28.2232 7.82291 28.37 7.76074C28.4958 7.59682 28.6165 7.46136 28.7288 7.35731C29.0136 7.29841 29.2868 7.24999 29.5474 7.21072C30.21 7.24148 30.9 7.29056 31.5999 7.35011C32.5704 7.31674 33.7453 7.27387 34.2637 7.24835L34.6708 7.30123C36.5655 9.0399 37.7648 11.5734 37.7818 14.3973ZM26.547 8.11412C26.4064 8.2149 26.2622 8.32026 26.1184 8.43347C26.0888 8.54668 26.0604 8.66611 26.0328 8.79142C26.1856 8.78521 26.3401 8.77899 26.4945 8.77375C26.584 8.61604 26.6722 8.46488 26.7591 8.32287C26.7272 8.53097 26.6989 8.76165 26.6728 9.00966C26.8981 8.92819 27.1243 8.84737 27.3467 8.77015L27.3536 8.76264C27.4178 8.6926 27.4809 8.6238 27.5443 8.55715C27.338 8.2378 27.1481 7.9623 26.9837 7.74144C26.8463 7.7915 26.7076 7.84582 26.5669 7.90111C26.5599 7.9695 26.5531 8.03952 26.547 8.11412ZM32.7557 20.4434L32.8929 20.4868C33.0949 20.1639 33.2916 19.8053 33.4856 19.4254C33.4779 19.2719 33.4692 19.1175 33.4563 18.9559C33.2079 19.143 32.955 19.3243 32.7024 19.4997C32.6505 19.8095 32.592 20.1034 32.5305 20.3717C32.6063 20.3961 32.6813 20.4198 32.7557 20.4434Z" fill="white"/>
</svg>
