<svg width="24" height="24" viewBox="0 0 24 24" fill="none" xmlns="http://www.w3.org/2000/svg">
<path d="M6.04347 3.70696C5.98158 3.41191 5.71337 3.24331 5.42453 3.28546C5.13569 3.34869 4.95001 3.62266 5.0119 3.91771L8.68429 21.5785C8.74618 21.8314 8.9525 22 9.20007 22C9.24134 22 9.2826 22 9.30323 21.979C9.59207 21.9157 9.77775 21.6418 9.71586 21.3467L6.04347 3.70696Z" fill="#60BCE3"/>
<path d="M17.3289 2L16.7099 2.31612C15.1626 3.11697 13.8628 3.05375 12.5011 3.0116C10.9331 2.94837 9.28263 2.88515 7.34328 4.17072L7.03381 4.38147L8.70496 12.4532L9.34453 12.0317C11.0157 10.9358 12.4186 10.9779 13.9041 11.0412C15.3483 11.0833 16.8337 11.1465 18.6286 10.2403L19 10.0506L17.3289 2Z" fill="#60BCE3"/>
</svg>
