<svg width="24" height="24" viewBox="0 0 24 24" fill="none" xmlns="http://www.w3.org/2000/svg">
<path d="M13.2243 9.34564C15.1441 9.34564 16.7127 7.79242 16.7127 5.89147V4.45417C16.7127 2.55322 15.1441 1 13.2243 1C11.3046 1 9.73596 2.55322 9.73596 4.45417V5.89147C9.73596 7.79242 11.3046 9.34564 13.2243 9.34564Z" fill="#BFD2DF"/>
<path d="M19.9669 16.3469L19.1474 12.7305C18.7729 11.0613 17.2745 9.87903 15.542 9.87903C15.3313 9.87903 15.1206 9.99494 15.0035 10.1572L13.5988 12.1741C13.4115 12.4291 13.0369 12.4291 12.8496 12.1741L11.4449 10.1572C11.3279 9.97176 11.1172 9.87903 10.9065 9.87903C9.19739 9.87903 7.69903 11.0613 7.30103 12.7305C7.34785 12.7305 7.39467 12.7073 7.4415 12.7073C10.3446 12.7073 12.6858 15.0487 12.6858 17.9233H18.6792C19.522 17.9233 20.1542 17.1583 19.9669 16.3469Z" fill="#BFD2DF"/>
<path d="M10.4617 19.5923C10.7426 19.0823 10.9299 18.5259 10.9299 17.9C10.9299 15.999 9.36132 14.469 7.46496 14.469C5.5686 14.469 4 16.0222 4 17.9C4 19.7777 5.5686 21.331 7.46496 21.331C8.09708 21.331 8.65897 21.1455 9.17403 20.8673L11.047 22.7219C11.2343 22.9074 11.4684 23.0001 11.7025 23.0001C11.9366 23.0001 12.1707 22.9074 12.358 22.7219C12.7092 22.3742 12.7092 21.7946 12.358 21.4237L10.4617 19.5923ZM5.82613 17.9232C5.82613 17.0422 6.5519 16.3236 7.44155 16.3236C8.3312 16.3236 9.05697 17.0422 9.05697 17.9232C9.05697 18.8041 8.3312 19.5227 7.44155 19.5227C6.5519 19.5227 5.82613 18.8041 5.82613 17.9232Z" fill="#BFD2DF"/>
</svg>
