<svg width="32" height="32" viewBox="0 0 32 32" fill="none" xmlns="http://www.w3.org/2000/svg">
<path d="M16 4C9.376 4 4 9.376 4 16C4 22.624 9.376 28 16 28C22.624 28 28 22.624 28 16C28 9.376 22.624 4 16 4ZM16 7.6C17.992 7.6 19.6 9.208 19.6 11.2C19.6 13.192 17.992 14.8 16 14.8C14.008 14.8 12.4 13.192 12.4 11.2C12.4 9.208 14.008 7.6 16 7.6ZM16 24.64C13 24.64 10.348 23.104 8.8 20.776C8.836 18.388 13.6 17.08 16 17.08C18.388 17.08 23.164 18.388 23.2 20.776C21.652 23.104 19 24.64 16 24.64Z" fill="white"/>
</svg>
