<svg width="32" height="32" viewBox="0 0 32 32" fill="none" xmlns="http://www.w3.org/2000/svg">
<path d="M15.8699 20.4038V16.9211C15.8699 15.4322 17.1193 14.2208 18.6812 14.2208H26.8287V10.7129C26.8287 9.98107 26.204 9.35016 25.4231 9.35016H8.13884C7.38396 9.35016 6.78526 8.74448 6.78526 8.03785C6.78526 7.33123 7.40999 6.72555 8.13884 6.72555H25.4231C26.1779 6.72555 26.8287 6.11987 26.8287 5.36278C26.8287 4.63091 26.204 4 25.4231 4H8.13884C5.84816 4 4 5.81703 4 8.03785V24.5173C4 26.4353 5.61389 28 7.5922 28H23.2625C25.2408 28 26.8547 26.4353 26.8547 24.5173V23.0789H18.6812C17.1454 23.1041 15.8699 21.8927 15.8699 20.4038Z" fill="white"/>
<path d="M26.8808 15.8359H18.6812C18.0565 15.8359 17.5619 16.3154 17.5619 16.9211V20.3785C17.5619 20.9842 18.0565 21.4637 18.6812 21.4637H26.8808C27.5055 21.4637 28.0001 20.9842 28.0001 20.3785V16.9211C28.0001 16.3407 27.5055 15.8359 26.8808 15.8359ZM25.319 19.8486C24.6422 19.8486 24.0955 19.3186 24.0955 18.6624C24.0955 18.0063 24.6422 17.4763 25.319 17.4763C25.9958 17.4763 26.5424 18.0063 26.5424 18.6624C26.5424 19.3186 25.9958 19.8486 25.319 19.8486Z" fill="white"/>
</svg>
